<svg id="canvas" height="auto" xmlns="http://www.w3.org/2000/svg" version="1.1" xmlns:xlink="http://www.w3.org/1999/xlink" viewBox="0 0 900 512" width="auto" style="width: auto; height: auto;"><defs><linearGradient gradientTransform="matrix(6.123233995736766e-17,1,-1,6.123233995736766e-17,0,0)" id="SvgjsLinearGradient1048"><stop stop-color="#fefefa" offset="0"/><stop stop-color="#fafefa" offset="1"/></linearGradient><linearGradient gradientTransform="matrix(6.123233995736766e-17,1,-1,6.123233995736766e-17,0,0)" id="SvgjsLinearGradient1049"><stop stop-color="#fefefa" offset="0"/><stop stop-color="#fafefa" offset="1"/></linearGradient><linearGradient gradientTransform="matrix(6.123233995736766e-17,1,-1,6.123233995736766e-17,0,0)" id="SvgjsLinearGradient1050"><stop stop-color="#f8f4ff" offset="0"/><stop stop-color="#fff4fb" offset="1"/></linearGradient></defs><rect width="900" height="512" fill="url(#SvgjsLinearGradient1048)"/><path d="M0,512C0,435.7490118896227,-18.75,136.30846210681915,0,54.49407133773617C18.75,-27.320319431346803,75,13.806990877029829,112.5,21.11365538550218C150,28.420319893974533,187.5,90.22940871737549,225,98.33405838857028C262.5,106.43870805976508,300,80.74526636985311,337.5,69.74155341267095C375,58.7378404554888,412.5,38.04013875411563,450,32.31178064547736C487.5,26.583422536839095,525,20.44308562997491,562.5,35.37140476084135C600,50.29972389170779,637.5,121.31264394251484,675,121.881695430676C712.5,122.45074691883717,750,39.45447845991081,787.5,38.78571368980837C825,38.116948919705926,880.9166666666666,38.66672575836273,900,117.86910681006134C919.0833333333334,197.07148786175995,901.6666666666666,447.97818446834356,902,514" fill="url(#SvgjsLinearGradient1049)" opacity="0.9"/><path d="M0,512C0,453.7545325447687,-18.75,216.65167974088217,0,162.52719526861242C18.75,108.40271079634266,75,173.21716533261576,112.5,187.25309316638152C150,201.28902100014727,187.5,249.25265104813857,225,246.74276227120694C262.5,244.2328734942753,300,193.33515009912216,337.5,172.19376050479167C375,151.05237091046118,412.5,120.54857790584572,450,119.89442470522405C487.5,119.24027150460239,525,152.26256591883805,562.5,168.2688413010617C600,184.27511668328538,637.5,214.62602542635017,675,215.93207699856612C712.5,217.23812857078207,750,177.9894721546069,787.5,176.10515073435732C825,174.22082931410776,880.9166666666666,148.31034026612835,900,204.6261484770688C919.0833333333334,260.9419566880092,901.6666666666666,462.4376914128448,902,514" fill="url(#SvgjsLinearGradient1050)" opacity="0.9"/><path d="M0,512C0,473.0311449141665,-18.75,311.938010905098,0,278.1868694849987C18.75,244.43572806489934,75,293.0807640806408,112.5,309.493151479404C150,325.9055388781672,187.5,372.05966492819744,225,376.6611938775779C262.5,381.26272282695834,300,361.1974995013471,337.5,337.1023251756866C375,313.00715085002605,412.5,237.98667982331045,450,232.0901479236147C487.5,226.19361602391893,525,280.4517879854584,562.5,301.723133777512C600,322.99447956956556,637.5,358.4000897464918,675,359.7182226759362C712.5,361.0363556053806,750,322.4714162668734,787.5,309.63193135417845C825,296.7924464414835,880.9166666666666,248.61996842546276,900,282.68131319976635C919.0833333333334,316.74265797406997,901.6666666666666,475.4468855332944,902,514" fill="url(#SvgjsLinearGradient1048)" opacity="0.9"/><path d="M0,512C0,488.7417581681524,-18.75,377.62851653852016,0,372.4505490089143C18.75,367.2725814793085,75,453.84913400983163,112.5,480.932194822365C150,508.0152556348983,187.5,537.3374323832991,225,534.9489138841143C262.5,532.5603953849295,300,493.59942773341976,337.5,466.6010838272564C375,439.602739921093,412.5,372.08449826503505,450,372.9588504471341C487.5,373.8332026292332,525,451.28634736043995,562.5,471.84719691985094C600,492.40804647926194,637.5,508.79996512571114,675,496.32394780360005C712.5,483.84793048148896,750,412.9034691536166,787.5,396.9910929871844C825,381.0787168207522,880.9166666666666,381.348206302871,900,400.84969080500696C919.0833333333334,420.3511753071429,901.6666666666666,495.1416151341678,902,514" fill="url(#SvgjsLinearGradient1049)" opacity="0.9"/><path d="M0,512C0,501.6832614174822,-18.75,435.4753384086667,0,450.0995685048931C18.75,464.72379860111954,75,564.9742466205063,112.5,599.7453805773584C150,634.5165145342106,187.5,654.9260458974877,225,658.7263722460062C262.5,662.5266985945248,300,654.1839895340936,337.5,622.5473386684694C375,590.9106878028451,412.5,474.6153325961855,450,468.9064670522611C487.5,463.19760150833673,525,555.7333591657504,562.5,588.2941454049229C600,620.8549316440955,637.5,679.9162525817937,675,664.2711844872963C712.5,648.6261163927988,750,512.0041974999835,787.5,494.423736837938C825,476.84327617589247,880.9166666666666,555.5257099880126,900,558.788420515023C919.0833333333334,562.0511310420333,901.6666666666666,521.4647367525038,902,514" fill="url(#SvgjsLinearGradient1050)" opacity="0.9"/></svg>